<svg version="1.1" id="Layer_1" xmlns="http://www.w3.org/2000/svg" xmlns:xlink="http://www.w3.org/1999/xlink" x="0px" y="0px"
	 width="100%" viewBox="0 0 200 200" enable-background="new 0 0 200 200" xml:space="preserve">
<path fill="#894F01" opacity="1.000000" stroke="none" 
	d="
M121.000000,201.000000 
	C80.691574,201.000000 40.883148,201.000000 1.037362,201.000000 
	C1.037362,134.399948 1.037362,67.799866 1.037362,1.099894 
	C67.558250,1.099894 134.116699,1.099894 200.837585,1.099894 
	C200.837585,67.666344 200.837585,134.333145 200.837585,201.000000 
	C174.466812,201.000000 147.983414,201.000000 121.000000,201.000000 
M31.880949,52.658489 
	C31.587858,54.088322 31.041414,55.517731 31.039021,56.948048 
	C30.989391,86.596886 30.976706,116.245911 31.067482,145.894562 
	C31.072557,147.552383 32.032444,149.207291 32.859844,151.444061 
	C35.006401,153.824051 36.759041,157.601379 39.369102,158.337173 
	C49.554314,161.208450 59.805019,160.809586 68.562096,156.794998 
	C73.505989,157.966660 77.696175,159.385452 81.989441,159.848434 
	C85.722580,160.251007 89.570053,159.483002 93.370827,159.391678 
	C101.153557,159.204697 103.953880,157.230377 107.171043,149.333649 
	C107.447792,147.406555 107.958252,145.480270 107.964890,143.552246 
	C108.026459,125.649834 107.954536,107.746834 108.066345,89.844910 
	C108.078918,87.831352 108.988037,85.823395 109.858421,84.422958 
	C116.856804,106.275642 123.836708,128.134262 130.862915,149.977997 
	C133.561478,158.367538 138.471970,160.846176 146.985474,158.216049 
	C151.592117,156.792862 156.200989,155.372757 160.776398,153.853516 
	C167.964706,151.466690 171.012054,146.205627 168.776230,139.131058 
	C159.456772,109.642555 150.025116,80.189102 140.506561,50.764210 
	C138.286118,43.900150 132.865494,41.271996 125.910393,43.400482 
	C119.124931,45.477055 112.413467,47.795422 105.664520,50.009274 
	C100.076622,42.290997 80.291191,40.603180 70.399895,46.183636 
	C65.882370,45.157974 62.469666,43.995392 58.981651,43.688377 
	C54.520489,43.295712 49.990482,43.764408 45.504841,43.551807 
	C38.993061,43.243179 34.636711,45.913475 31.880949,52.658489 
z"/>
<path fill="#F7F3EE" opacity="1.000000" stroke="none" 
	d="
M106.538826,149.877884 
	C103.953880,157.230377 101.153557,159.204697 93.370827,159.391678 
	C89.570053,159.483002 85.722580,160.251007 81.989441,159.848434 
	C77.696175,159.385452 73.505989,157.966660 68.562096,156.794998 
	C59.805019,160.809586 49.554314,161.208450 39.369102,158.337173 
	C36.759041,157.601379 35.006401,153.824051 32.707592,150.694489 
	C32.546555,117.339378 32.537769,84.733849 32.528980,52.128326 
	C34.636711,45.913475 38.993061,43.243179 45.504841,43.551807 
	C49.990482,43.764408 54.520489,43.295712 58.981651,43.688377 
	C62.469666,43.995392 65.882370,45.157974 70.399895,46.183636 
	C80.291191,40.603180 100.076622,42.290997 105.664520,50.009274 
	C112.413467,47.795422 119.124931,45.477055 125.910393,43.400482 
	C132.865494,41.271996 138.286118,43.900150 140.506561,50.764210 
	C150.025116,80.189102 159.456772,109.642555 168.776230,139.131058 
	C171.012054,146.205627 167.964706,151.466690 160.776398,153.853516 
	C156.200989,155.372757 151.592117,156.792862 146.985474,158.216049 
	C138.471970,160.846176 133.561478,158.367538 130.862915,149.977997 
	C123.836708,128.134262 116.856804,106.275642 109.596207,83.721138 
	C108.773010,81.296310 108.212044,79.573303 107.651077,77.850296 
	C107.280327,77.952202 106.909576,78.054100 106.538826,78.156006 
	C106.538826,102.063301 106.538826,125.970589 106.538826,149.877884 
M61.321243,48.413086 
	C54.872017,48.577541 48.422787,48.741993 41.342762,48.966072 
	C40.537563,49.590141 39.732368,50.214214 38.281391,51.300198 
	C37.934685,53.392876 37.290806,55.484886 37.286068,57.578339 
	C37.219944,86.787666 37.231197,115.997208 37.268093,145.206635 
	C37.270130,146.817719 37.662037,148.428299 37.998486,150.796951 
	C40.009235,151.972427 41.947220,153.977875 44.044903,154.161804 
	C49.498905,154.639954 55.023842,154.374176 60.518963,154.297363 
	C64.782166,154.237793 66.933937,151.917038 66.936157,147.693710 
	C66.952400,116.881676 66.949692,86.069633 66.939705,55.257599 
	C66.938622,51.901146 65.675964,49.441967 61.321243,48.413086 
M76.191216,48.872837 
	C74.784149,51.041759 72.170670,53.200199 72.151718,55.381184 
	C71.884644,86.120155 71.975075,116.862190 71.965317,147.603485 
	C71.963974,151.829849 73.979408,154.208603 78.239731,154.287704 
	C83.887375,154.392593 89.577354,154.688492 95.167633,154.111969 
	C97.206963,153.901642 99.012665,151.426071 101.220787,149.089645 
	C101.256218,117.879051 101.294624,86.668457 101.310593,55.457855 
	C101.311012,54.644806 101.066490,53.831638 100.969070,52.332577 
	C99.651154,51.199154 98.333244,50.065727 96.301735,48.515198 
	C89.849182,48.610592 83.396629,48.705982 76.191216,48.872837 
M109.030525,65.403610 
	C117.682449,92.492615 126.335884,119.581131 134.985397,146.670898 
	C137.504822,154.561615 139.179306,155.462494 146.908142,153.022064 
	C151.031494,151.720078 155.173447,150.470490 159.261414,149.064713 
	C163.945297,147.453949 165.365967,144.931351 163.888916,140.278030 
	C154.631927,111.114960 145.314194,81.971077 135.953125,52.841228 
	C134.446365,48.152485 131.874771,46.858326 127.118790,48.220940 
	C123.124115,49.365440 119.197594,50.746998 115.236923,52.011162 
	C106.769058,54.713917 106.047424,56.131706 109.030525,65.403610 
z"/>
<path fill="#7F3F00" opacity="1.000000" stroke="none" 
	d="
M32.204964,52.393410 
	C32.537769,84.733849 32.546555,117.339378 32.551628,150.404236 
	C32.032444,149.207291 31.072557,147.552383 31.067482,145.894562 
	C30.976706,116.245911 30.989391,86.596886 31.039021,56.948048 
	C31.041414,55.517731 31.587858,54.088322 32.204964,52.393410 
z"/>
<path fill="#814202" opacity="1.000000" stroke="none" 
	d="
M106.854935,149.605774 
	C106.538826,125.970589 106.538826,102.063301 106.538826,78.156006 
	C106.909576,78.054100 107.280327,77.952202 107.651077,77.850296 
	C108.212044,79.573303 108.773010,81.296310 109.407700,83.416077 
	C108.988037,85.823395 108.078918,87.831352 108.066345,89.844910 
	C107.954536,107.746834 108.026459,125.649834 107.964890,143.552246 
	C107.958252,145.480270 107.447792,147.406555 106.854935,149.605774 
z"/>
<path fill="#8B5005" opacity="1.000000" stroke="none" 
	d="
M108.933136,65.020584 
	C106.047424,56.131706 106.769058,54.713917 115.236923,52.011162 
	C119.197594,50.746998 123.124115,49.365440 127.118790,48.220940 
	C131.874771,46.858326 134.446365,48.152485 135.953125,52.841228 
	C145.314194,81.971077 154.631927,111.114960 163.888916,140.278030 
	C165.365967,144.931351 163.945297,147.453949 159.261414,149.064713 
	C155.173447,150.470490 151.031494,151.720078 146.908142,153.022064 
	C139.179306,155.462494 137.504822,154.561615 134.985397,146.670898 
	C126.335884,119.581131 117.682449,92.492615 108.933136,65.020584 
M128.328796,70.880142 
	C124.705376,72.045128 121.081963,73.210114 117.055023,74.504837 
	C118.125893,77.705696 119.100044,80.617477 120.169060,83.812828 
	C126.537621,81.768280 132.497543,79.854912 138.823151,77.824150 
	C137.718750,74.528526 136.747742,71.630951 135.706772,68.524605 
	C133.190567,69.330818 131.142395,69.987068 128.328796,70.880142 
M130.334900,90.891922 
	C127.989395,91.674736 125.643898,92.457558 123.081635,93.312721 
	C123.680954,94.971886 124.167381,96.318520 124.745064,97.917786 
	C131.085632,95.865173 137.156219,93.899956 143.581100,91.820053 
	C142.670593,89.939552 142.059830,88.678101 141.418808,87.354156 
	C137.725983,88.539200 134.402985,89.605568 130.334900,90.891922 
z"/>
<path fill="#8A4F02" opacity="1.000000" stroke="none" 
	d="
M97.015335,48.932301 
	C98.333244,50.065727 99.651154,51.199154 100.730690,53.021957 
	C100.330460,54.683720 100.028053,55.655979 100.027176,56.628510 
	C100.000221,86.318695 99.990082,116.008934 100.040222,145.699066 
	C100.042633,147.127838 100.616959,148.555679 100.924957,149.983948 
	C99.012665,151.426071 97.206963,153.901642 95.167633,154.111969 
	C89.577354,154.688492 83.887375,154.392593 78.239731,154.287704 
	C73.979408,154.208603 71.963974,151.829849 71.965317,147.603485 
	C71.975075,116.862190 71.884644,86.120155 72.151718,55.381184 
	C72.170670,53.200199 74.784149,51.041759 76.919250,49.055588 
	C84.103302,49.136322 90.559319,49.034309 97.015335,48.932301 
M94.853874,70.414490 
	C88.947464,70.414490 83.041054,70.414490 77.086510,70.414490 
	C77.086510,74.078560 77.086510,77.010590 77.086510,80.256500 
	C83.666405,80.256500 90.016640,80.256500 97.062180,80.256500 
	C96.555344,76.615341 96.135620,73.600052 94.853874,70.414490 
M88.414536,90.097961 
	C84.652603,90.097961 80.890671,90.097961 76.767609,90.097961 
	C76.956352,92.121872 77.084419,93.495216 77.199783,94.732292 
	C83.862091,94.732292 90.086830,94.732292 96.691101,94.732292 
	C96.520241,93.005295 96.383987,91.628120 96.232605,90.097977 
	C93.657364,90.097977 91.511635,90.097977 88.414536,90.097961 
z"/>
<path fill="#8A5003" opacity="1.000000" stroke="none" 
	d="
M38.927170,50.838284 
	C39.732368,50.214214 40.537563,49.590141 42.020676,49.127632 
	C49.145866,49.133110 55.593140,48.977028 62.040413,48.820946 
	C65.675964,49.441967 66.938622,51.901146 66.939705,55.257599 
	C66.949692,86.069633 66.952400,116.881676 66.936157,147.693710 
	C66.933937,151.917038 64.782166,154.237793 60.518963,154.297363 
	C55.023842,154.374176 49.498905,154.639954 44.044903,154.161804 
	C41.947220,153.977875 40.009235,151.972427 38.141930,150.060959 
	C38.450306,147.188812 38.753788,145.053009 38.759319,142.916428 
	C38.838802,112.223778 38.878166,81.531021 38.927170,50.838284 
M42.320255,76.270935 
	C41.726006,79.490273 43.139229,80.855598 46.330414,80.815605 
	C51.443581,80.751511 56.558140,80.798431 61.748566,80.798431 
	C61.748566,76.860741 61.748566,73.816856 61.748566,70.716400 
	C55.194336,70.716400 48.963768,70.716400 42.320515,70.716400 
	C42.320515,72.495857 42.320515,73.958199 42.320255,76.270935 
M62.063904,92.563805 
	C61.004860,91.742790 59.973846,90.259918 58.881989,90.213684 
	C53.759468,89.996750 48.620113,90.166901 43.487244,90.234612 
	C43.220261,90.238136 42.957623,90.571037 42.344711,90.986862 
	C42.444099,92.159782 42.560131,93.529045 42.688221,95.040649 
	C48.433086,95.040649 53.730400,95.121185 59.021152,94.970779 
	C60.044678,94.941681 61.042542,94.010063 62.063904,92.563805 
z"/>
<path fill="#9C6C34" opacity="1.000000" stroke="none" 
	d="
M38.604279,51.069241 
	C38.878166,81.531021 38.838802,112.223778 38.759319,142.916428 
	C38.753788,145.053009 38.450306,147.188812 38.078926,149.682037 
	C37.662037,148.428299 37.270130,146.817719 37.268093,145.206635 
	C37.231197,115.997208 37.219944,86.787666 37.286068,57.578339 
	C37.290806,55.484886 37.934685,53.392876 38.604279,51.069241 
z"/>
<path fill="#814200" opacity="1.000000" stroke="none" 
	d="
M101.072876,149.536804 
	C100.616959,148.555679 100.042633,147.127838 100.040222,145.699066 
	C99.990082,116.008934 100.000221,86.318695 100.027176,56.628510 
	C100.028053,55.655979 100.330460,54.683720 100.714249,53.364929 
	C101.066490,53.831638 101.311012,54.644806 101.310593,55.457855 
	C101.294624,86.668457 101.256218,117.879051 101.072876,149.536804 
z"/>
<path fill="#9E6D37" opacity="1.000000" stroke="none" 
	d="
M96.658539,48.723747 
	C90.559319,49.034309 84.103302,49.136322 77.295685,49.019855 
	C83.396629,48.705982 89.849182,48.610592 96.658539,48.723747 
z"/>
<path fill="#9E6E39" opacity="1.000000" stroke="none" 
	d="
M61.680828,48.617016 
	C55.593140,48.977028 49.145866,49.133110 42.336075,49.097816 
	C48.422787,48.741993 54.872017,48.577541 61.680828,48.617016 
z"/>
<path fill="#F9F7F3" opacity="1.000000" stroke="none" 
	d="
M128.711502,70.761734 
	C131.142395,69.987068 133.190567,69.330818 135.706772,68.524605 
	C136.747742,71.630951 137.718750,74.528526 138.823151,77.824150 
	C132.497543,79.854912 126.537621,81.768280 120.169060,83.812828 
	C119.100044,80.617477 118.125893,77.705696 117.055023,74.504837 
	C121.081963,73.210114 124.705376,72.045128 128.711502,70.761734 
z"/>
<path fill="#F6F1EB" opacity="1.000000" stroke="none" 
	d="
M130.707443,90.781929 
	C134.402985,89.605568 137.725983,88.539200 141.418808,87.354156 
	C142.059830,88.678101 142.670593,89.939552 143.581100,91.820053 
	C137.156219,93.899956 131.085632,95.865173 124.745064,97.917786 
	C124.167381,96.318520 123.680954,94.971886 123.081635,93.312721 
	C125.643898,92.457558 127.989395,91.674736 130.707443,90.781929 
z"/>
<path fill="#F7F2ED" opacity="1.000000" stroke="none" 
	d="
M95.284889,70.499634 
	C96.135620,73.600052 96.555344,76.615341 97.062180,80.256500 
	C90.016640,80.256500 83.666405,80.256500 77.086510,80.256500 
	C77.086510,77.010590 77.086510,74.078560 77.086510,70.414490 
	C83.041054,70.414490 88.947464,70.414490 95.284889,70.499634 
z"/>
<path fill="#F6F2EC" opacity="1.000000" stroke="none" 
	d="
M88.890221,90.097969 
	C91.511635,90.097977 93.657364,90.097977 96.232605,90.097977 
	C96.383987,91.628120 96.520241,93.005295 96.691101,94.732292 
	C90.086830,94.732292 83.862091,94.732292 77.199783,94.732292 
	C77.084419,93.495216 76.956352,92.121872 76.767609,90.097961 
	C80.890671,90.097961 84.652603,90.097961 88.890221,90.097969 
z"/>
<path fill="#F7F3ED" opacity="1.000000" stroke="none" 
	d="
M42.320385,75.845734 
	C42.320515,73.958199 42.320515,72.495857 42.320515,70.716400 
	C48.963768,70.716400 55.194336,70.716400 61.748566,70.716400 
	C61.748566,73.816856 61.748566,76.860741 61.748566,80.798431 
	C56.558140,80.798431 51.443581,80.751511 46.330414,80.815605 
	C43.139229,80.855598 41.726006,79.490273 42.320385,75.845734 
z"/>
<path fill="#F6F2EC" opacity="1.000000" stroke="none" 
	d="
M62.058075,93.029289 
	C61.042542,94.010063 60.044678,94.941681 59.021152,94.970779 
	C53.730400,95.121185 48.433086,95.040649 42.688221,95.040649 
	C42.560131,93.529045 42.444099,92.159782 42.344711,90.986862 
	C42.957623,90.571037 43.220261,90.238136 43.487244,90.234612 
	C48.620113,90.166901 53.759468,89.996750 58.881989,90.213684 
	C59.973846,90.259918 61.004860,91.742790 62.058075,93.029289 
z"/>
</svg>